<?xml version="1.0" encoding="iso-8859-1"?>
<!-- Generator: Adobe Illustrator 19.0.0, SVG Export Plug-In . SVG Version: 6.00 Build 0)  -->
<svg xmlns="http://www.w3.org/2000/svg" xmlns:xlink="http://www.w3.org/1999/xlink" version="1.1" id="Capa_1" x="0px" y="0px" viewBox="0 0 455 455" style="enable-background:new 0 0 455 455;" xml:space="preserve" width="512" height="512">
<g>
	<rect x="20" y="76.475" style="fill:#6DA8D6;" width="415" height="272.05"/>
	<rect x="40" y="358.525" style="fill:#FFCC75;" width="375" height="40"/>
	<polygon style="fill:#FFCC75;" points="30,71.475 30,353.525 0,368.525 0,56.475  "/>
	<polygon style="fill:#FFCC75;" points="455,56.475 455,368.525 425,353.525 425,71.475  "/>
	<path style="fill:#FFFFFF;" d="M169.85,165.271c-3.438-2.308-8.099-1.391-10.406,2.049l-21.284,31.719l-21.284-31.719   c-2.308-3.439-6.968-4.358-10.406-2.049c-3.439,2.308-4.357,6.967-2.049,10.407l24.707,36.821l-24.707,36.821   c-2.309,3.439-1.391,8.099,2.049,10.407c1.282,0.861,2.735,1.273,4.172,1.273c2.416,0,4.787-1.165,6.234-3.322l21.284-31.719   l21.284,31.719c1.447,2.157,3.818,3.322,6.234,3.322c1.437,0,2.89-0.412,4.172-1.273c3.439-2.308,4.357-6.967,2.049-10.407   l-24.707-36.821l24.707-36.821C174.207,172.238,173.289,167.579,169.85,165.271z"/>
	<path style="fill:#FFFFFF;" d="M348.484,165.24c-3.456-2.282-8.108-1.331-10.392,2.126l-21.082,31.928l-21.455-31.974   c-2.308-3.439-6.968-4.357-10.406-2.049c-3.439,2.308-4.357,6.967-2.049,10.407l26.46,39.434v38.387c0,4.142,3.357,7.5,7.5,7.5   s7.5-3.358,7.5-7.5v-38.417l26.049-39.45C352.893,172.175,351.94,167.522,348.484,165.24z"/>
	<path style="fill:#FFFFFF;" d="M257.5,204.342H235v-22.5c0-4.142-3.357-7.5-7.5-7.5s-7.5,3.358-7.5,7.5v22.5h-22.5   c-4.143,0-7.5,3.358-7.5,7.5s3.357,7.5,7.5,7.5H220v22.5c0,4.142,3.357,7.5,7.5,7.5s7.5-3.358,7.5-7.5v-22.5h22.5   c4.143,0,7.5-3.358,7.5-7.5S261.643,204.342,257.5,204.342z"/>
	<polygon style="fill:#F2EBD9;" points="455,56.475 425,86.475 30,86.475 0,56.475  "/>
	<polygon style="fill:#F2EBD9;" points="425,338.525 30,338.525 0,368.525 455,368.525  "/>
	<rect x="310" y="328.525" style="fill:#FFFFFF;" width="75" height="40"/>
</g>















</svg>
